<svg xmlns="http://www.w3.org/2000/svg" xmlns:xlink="http://www.w3.org/1999/xlink" width="500" zoomAndPan="magnify" viewBox="0 0 375 374.999991" height="500" preserveAspectRatio="xMidYMid meet" version="1.0"><defs><g/><clipPath id="fb9fd21352"><path d="M 58.820312 58.820312 L 316.070312 58.820312 L 316.070312 316.070312 L 58.820312 316.070312 Z M 58.820312 58.820312 " clip-rule="nonzero"/></clipPath><clipPath id="09652f8063"><path d="M 135 154 L 220 154 L 220 239 L 135 239 Z M 135 154 " clip-rule="nonzero"/></clipPath><clipPath id="4cf3fc68b0"><path d="M 135.074219 187.445312 C 135.074219 184.003906 135.410156 180.601562 136.082031 177.226562 C 136.75 173.855469 137.746094 170.578125 139.0625 167.402344 C 140.378906 164.226562 141.988281 161.207031 143.902344 158.347656 C 145.8125 155.488281 147.980469 152.84375 150.414062 150.414062 C 152.84375 147.980469 155.488281 145.8125 158.347656 143.902344 C 161.207031 141.988281 164.226562 140.378906 167.402344 139.0625 C 170.578125 137.746094 173.855469 136.75 177.226562 136.082031 C 180.601562 135.410156 184.003906 135.074219 187.445312 135.074219 C 190.882812 135.074219 194.289062 135.410156 197.660156 136.082031 C 201.035156 136.75 204.308594 137.746094 207.484375 139.0625 C 210.660156 140.378906 213.679688 141.988281 216.539062 143.902344 C 219.398438 145.8125 222.042969 147.980469 224.476562 150.414062 C 226.90625 152.84375 229.078125 155.488281 230.988281 158.347656 C 232.898438 161.207031 234.511719 164.226562 235.828125 167.402344 C 237.144531 170.578125 238.136719 173.855469 238.808594 177.226562 C 239.476562 180.601562 239.8125 184.003906 239.8125 187.445312 C 239.8125 190.882812 239.476562 194.289062 238.808594 197.660156 C 238.136719 201.035156 237.144531 204.308594 235.828125 207.484375 C 234.511719 210.660156 232.898438 213.679688 230.988281 216.539062 C 229.078125 219.398438 226.90625 222.042969 224.476562 224.476562 C 222.042969 226.90625 219.398438 229.078125 216.539062 230.988281 C 213.679688 232.898438 210.660156 234.511719 207.484375 235.828125 C 204.308594 237.144531 201.035156 238.136719 197.660156 238.808594 C 194.289062 239.476562 190.882812 239.8125 187.445312 239.8125 C 184.003906 239.8125 180.601562 239.476562 177.226562 238.808594 C 173.855469 238.136719 170.578125 237.144531 167.402344 235.828125 C 164.226562 234.511719 161.207031 232.898438 158.347656 230.988281 C 155.488281 229.078125 152.84375 226.90625 150.414062 224.476562 C 147.980469 222.042969 145.8125 219.398438 143.902344 216.539062 C 141.988281 213.679688 140.378906 210.660156 139.0625 207.484375 C 137.746094 204.308594 136.75 201.035156 136.082031 197.660156 C 135.410156 194.289062 135.074219 190.882812 135.074219 187.445312 Z M 135.074219 187.445312 " clip-rule="nonzero"/></clipPath><clipPath id="10abbd10ea"><path d="M 155 214 L 220 214 L 220 239.921875 L 155 239.921875 Z M 155 214 " clip-rule="nonzero"/></clipPath><clipPath id="4ff90307f5"><path d="M 135.074219 187.445312 C 135.074219 184.003906 135.410156 180.601562 136.082031 177.226562 C 136.75 173.855469 137.746094 170.578125 139.0625 167.402344 C 140.378906 164.226562 141.988281 161.207031 143.902344 158.347656 C 145.8125 155.488281 147.980469 152.84375 150.414062 150.414062 C 152.84375 147.980469 155.488281 145.8125 158.347656 143.902344 C 161.207031 141.988281 164.226562 140.378906 167.402344 139.0625 C 170.578125 137.746094 173.855469 136.75 177.226562 136.082031 C 180.601562 135.410156 184.003906 135.074219 187.445312 135.074219 C 190.882812 135.074219 194.289062 135.410156 197.660156 136.082031 C 201.035156 136.75 204.308594 137.746094 207.484375 139.0625 C 210.660156 140.378906 213.679688 141.988281 216.539062 143.902344 C 219.398438 145.8125 222.042969 147.980469 224.476562 150.414062 C 226.90625 152.84375 229.078125 155.488281 230.988281 158.347656 C 232.898438 161.207031 234.511719 164.226562 235.828125 167.402344 C 237.144531 170.578125 238.136719 173.855469 238.808594 177.226562 C 239.476562 180.601562 239.8125 184.003906 239.8125 187.445312 C 239.8125 190.882812 239.476562 194.289062 238.808594 197.660156 C 238.136719 201.035156 237.144531 204.308594 235.828125 207.484375 C 234.511719 210.660156 232.898438 213.679688 230.988281 216.539062 C 229.078125 219.398438 226.90625 222.042969 224.476562 224.476562 C 222.042969 226.90625 219.398438 229.078125 216.539062 230.988281 C 213.679688 232.898438 210.660156 234.511719 207.484375 235.828125 C 204.308594 237.144531 201.035156 238.136719 197.660156 238.808594 C 194.289062 239.476562 190.882812 239.8125 187.445312 239.8125 C 184.003906 239.8125 180.601562 239.476562 177.226562 238.808594 C 173.855469 238.136719 170.578125 237.144531 167.402344 235.828125 C 164.226562 234.511719 161.207031 232.898438 158.347656 230.988281 C 155.488281 229.078125 152.84375 226.90625 150.414062 224.476562 C 147.980469 222.042969 145.8125 219.398438 143.902344 216.539062 C 141.988281 213.679688 140.378906 210.660156 139.0625 207.484375 C 137.746094 204.308594 136.75 201.035156 136.082031 197.660156 C 135.410156 194.289062 135.074219 190.882812 135.074219 187.445312 Z M 135.074219 187.445312 " clip-rule="nonzero"/></clipPath><clipPath id="bde75da6a5"><path d="M 207 177 L 239.921875 177 L 239.921875 239 L 207 239 Z M 207 177 " clip-rule="nonzero"/></clipPath><clipPath id="da02be00ae"><path d="M 135.074219 187.445312 C 135.074219 184.003906 135.410156 180.601562 136.082031 177.226562 C 136.75 173.855469 137.746094 170.578125 139.0625 167.402344 C 140.378906 164.226562 141.988281 161.207031 143.902344 158.347656 C 145.8125 155.488281 147.980469 152.84375 150.414062 150.414062 C 152.84375 147.980469 155.488281 145.8125 158.347656 143.902344 C 161.207031 141.988281 164.226562 140.378906 167.402344 139.0625 C 170.578125 137.746094 173.855469 136.75 177.226562 136.082031 C 180.601562 135.410156 184.003906 135.074219 187.445312 135.074219 C 190.882812 135.074219 194.289062 135.410156 197.660156 136.082031 C 201.035156 136.75 204.308594 137.746094 207.484375 139.0625 C 210.660156 140.378906 213.679688 141.988281 216.539062 143.902344 C 219.398438 145.8125 222.042969 147.980469 224.476562 150.414062 C 226.90625 152.84375 229.078125 155.488281 230.988281 158.347656 C 232.898438 161.207031 234.511719 164.226562 235.828125 167.402344 C 237.144531 170.578125 238.136719 173.855469 238.808594 177.226562 C 239.476562 180.601562 239.8125 184.003906 239.8125 187.445312 C 239.8125 190.882812 239.476562 194.289062 238.808594 197.660156 C 238.136719 201.035156 237.144531 204.308594 235.828125 207.484375 C 234.511719 210.660156 232.898438 213.679688 230.988281 216.539062 C 229.078125 219.398438 226.90625 222.042969 224.476562 224.476562 C 222.042969 226.90625 219.398438 229.078125 216.539062 230.988281 C 213.679688 232.898438 210.660156 234.511719 207.484375 235.828125 C 204.308594 237.144531 201.035156 238.136719 197.660156 238.808594 C 194.289062 239.476562 190.882812 239.8125 187.445312 239.8125 C 184.003906 239.8125 180.601562 239.476562 177.226562 238.808594 C 173.855469 238.136719 170.578125 237.144531 167.402344 235.828125 C 164.226562 234.511719 161.207031 232.898438 158.347656 230.988281 C 155.488281 229.078125 152.84375 226.90625 150.414062 224.476562 C 147.980469 222.042969 145.8125 219.398438 143.902344 216.539062 C 141.988281 213.679688 140.378906 210.660156 139.0625 207.484375 C 137.746094 204.308594 136.75 201.035156 136.082031 197.660156 C 135.410156 194.289062 135.074219 190.882812 135.074219 187.445312 Z M 135.074219 187.445312 " clip-rule="nonzero"/></clipPath><clipPath id="5239027df1"><path d="M 135 135 L 188 135 L 188 178 L 135 178 Z M 135 135 " clip-rule="nonzero"/></clipPath><clipPath id="9b7f4ae038"><path d="M 135.074219 187.445312 C 135.074219 184.003906 135.410156 180.601562 136.082031 177.226562 C 136.75 173.855469 137.746094 170.578125 139.0625 167.402344 C 140.378906 164.226562 141.988281 161.207031 143.902344 158.347656 C 145.8125 155.488281 147.980469 152.84375 150.414062 150.414062 C 152.84375 147.980469 155.488281 145.8125 158.347656 143.902344 C 161.207031 141.988281 164.226562 140.378906 167.402344 139.0625 C 170.578125 137.746094 173.855469 136.75 177.226562 136.082031 C 180.601562 135.410156 184.003906 135.074219 187.445312 135.074219 C 190.882812 135.074219 194.289062 135.410156 197.660156 136.082031 C 201.035156 136.75 204.308594 137.746094 207.484375 139.0625 C 210.660156 140.378906 213.679688 141.988281 216.539062 143.902344 C 219.398438 145.8125 222.042969 147.980469 224.476562 150.414062 C 226.90625 152.84375 229.078125 155.488281 230.988281 158.347656 C 232.898438 161.207031 234.511719 164.226562 235.828125 167.402344 C 237.144531 170.578125 238.136719 173.855469 238.808594 177.226562 C 239.476562 180.601562 239.8125 184.003906 239.8125 187.445312 C 239.8125 190.882812 239.476562 194.289062 238.808594 197.660156 C 238.136719 201.035156 237.144531 204.308594 235.828125 207.484375 C 234.511719 210.660156 232.898438 213.679688 230.988281 216.539062 C 229.078125 219.398438 226.90625 222.042969 224.476562 224.476562 C 222.042969 226.90625 219.398438 229.078125 216.539062 230.988281 C 213.679688 232.898438 210.660156 234.511719 207.484375 235.828125 C 204.308594 237.144531 201.035156 238.136719 197.660156 238.808594 C 194.289062 239.476562 190.882812 239.8125 187.445312 239.8125 C 184.003906 239.8125 180.601562 239.476562 177.226562 238.808594 C 173.855469 238.136719 170.578125 237.144531 167.402344 235.828125 C 164.226562 234.511719 161.207031 232.898438 158.347656 230.988281 C 155.488281 229.078125 152.84375 226.90625 150.414062 224.476562 C 147.980469 222.042969 145.8125 219.398438 143.902344 216.539062 C 141.988281 213.679688 140.378906 210.660156 139.0625 207.484375 C 137.746094 204.308594 136.75 201.035156 136.082031 197.660156 C 135.410156 194.289062 135.074219 190.882812 135.074219 187.445312 Z M 135.074219 187.445312 " clip-rule="nonzero"/></clipPath><clipPath id="5e216dedbc"><path d="M 187 135 L 239.921875 135 L 239.921875 178 L 187 178 Z M 187 135 " clip-rule="nonzero"/></clipPath><clipPath id="be41b826e4"><path d="M 135.074219 187.445312 C 135.074219 184.003906 135.410156 180.601562 136.082031 177.226562 C 136.75 173.855469 137.746094 170.578125 139.0625 167.402344 C 140.378906 164.226562 141.988281 161.207031 143.902344 158.347656 C 145.8125 155.488281 147.980469 152.84375 150.414062 150.414062 C 152.84375 147.980469 155.488281 145.8125 158.347656 143.902344 C 161.207031 141.988281 164.226562 140.378906 167.402344 139.0625 C 170.578125 137.746094 173.855469 136.75 177.226562 136.082031 C 180.601562 135.410156 184.003906 135.074219 187.445312 135.074219 C 190.882812 135.074219 194.289062 135.410156 197.660156 136.082031 C 201.035156 136.75 204.308594 137.746094 207.484375 139.0625 C 210.660156 140.378906 213.679688 141.988281 216.539062 143.902344 C 219.398438 145.8125 222.042969 147.980469 224.476562 150.414062 C 226.90625 152.84375 229.078125 155.488281 230.988281 158.347656 C 232.898438 161.207031 234.511719 164.226562 235.828125 167.402344 C 237.144531 170.578125 238.136719 173.855469 238.808594 177.226562 C 239.476562 180.601562 239.8125 184.003906 239.8125 187.445312 C 239.8125 190.882812 239.476562 194.289062 238.808594 197.660156 C 238.136719 201.035156 237.144531 204.308594 235.828125 207.484375 C 234.511719 210.660156 232.898438 213.679688 230.988281 216.539062 C 229.078125 219.398438 226.90625 222.042969 224.476562 224.476562 C 222.042969 226.90625 219.398438 229.078125 216.539062 230.988281 C 213.679688 232.898438 210.660156 234.511719 207.484375 235.828125 C 204.308594 237.144531 201.035156 238.136719 197.660156 238.808594 C 194.289062 239.476562 190.882812 239.8125 187.445312 239.8125 C 184.003906 239.8125 180.601562 239.476562 177.226562 238.808594 C 173.855469 238.136719 170.578125 237.144531 167.402344 235.828125 C 164.226562 234.511719 161.207031 232.898438 158.347656 230.988281 C 155.488281 229.078125 152.84375 226.90625 150.414062 224.476562 C 147.980469 222.042969 145.8125 219.398438 143.902344 216.539062 C 141.988281 213.679688 140.378906 210.660156 139.0625 207.484375 C 137.746094 204.308594 136.75 201.035156 136.082031 197.660156 C 135.410156 194.289062 135.074219 190.882812 135.074219 187.445312 Z M 135.074219 187.445312 " clip-rule="nonzero"/></clipPath><clipPath id="69d225e1ad"><path d="M 131.003906 121.03125 L 244.253906 121.03125 L 244.253906 253.78125 L 131.003906 253.78125 Z M 131.003906 121.03125 " clip-rule="nonzero"/></clipPath></defs><g clip-path="url(#fb9fd21352)"><path fill="#000000" d="M 316.070312 187.445312 C 316.070312 189.550781 316.015625 191.652344 315.914062 193.753906 C 315.8125 195.859375 315.65625 197.957031 315.449219 200.050781 C 315.242188 202.144531 314.984375 204.234375 314.675781 206.316406 C 314.367188 208.398438 314.007812 210.472656 313.597656 212.539062 C 313.1875 214.601562 312.726562 216.65625 312.214844 218.699219 C 311.703125 220.738281 311.140625 222.765625 310.53125 224.78125 C 309.917969 226.796875 309.257812 228.792969 308.550781 230.777344 C 307.839844 232.757812 307.082031 234.722656 306.277344 236.667969 C 305.472656 238.613281 304.621094 240.535156 303.71875 242.4375 C 302.820312 244.339844 301.875 246.222656 300.882812 248.078125 C 299.890625 249.933594 298.851562 251.765625 297.769531 253.570312 C 296.6875 255.375 295.5625 257.152344 294.390625 258.902344 C 293.222656 260.65625 292.011719 262.375 290.757812 264.066406 C 289.503906 265.757812 288.207031 267.414062 286.871094 269.042969 C 285.535156 270.671875 284.164062 272.261719 282.75 273.824219 C 281.335938 275.382812 279.882812 276.90625 278.394531 278.394531 C 276.90625 279.882812 275.382812 281.335938 273.824219 282.75 C 272.261719 284.164062 270.671875 285.535156 269.042969 286.871094 C 267.414062 288.207031 265.757812 289.503906 264.066406 290.757812 C 262.375 292.011719 260.65625 293.222656 258.902344 294.390625 C 257.152344 295.5625 255.375 296.6875 253.570312 297.769531 C 251.765625 298.851562 249.933594 299.890625 248.078125 300.882812 C 246.222656 301.875 244.339844 302.820312 242.4375 303.71875 C 240.535156 304.621094 238.613281 305.472656 236.667969 306.277344 C 234.722656 307.082031 232.757812 307.839844 230.777344 308.550781 C 228.792969 309.257812 226.796875 309.917969 224.78125 310.53125 C 222.765625 311.140625 220.738281 311.703125 218.699219 312.214844 C 216.65625 312.726562 214.601562 313.1875 212.539062 313.597656 C 210.472656 314.007812 208.398438 314.367188 206.316406 314.675781 C 204.234375 314.984375 202.144531 315.242188 200.050781 315.449219 C 197.957031 315.65625 195.859375 315.8125 193.753906 315.914062 C 191.652344 316.015625 189.550781 316.070312 187.445312 316.070312 C 185.339844 316.070312 183.234375 316.015625 181.132812 315.914062 C 179.03125 315.8125 176.929688 315.65625 174.835938 315.449219 C 172.742188 315.242188 170.652344 314.984375 168.570312 314.675781 C 166.488281 314.367188 164.414062 314.007812 162.351562 313.597656 C 160.285156 313.1875 158.234375 312.726562 156.191406 312.214844 C 154.148438 311.703125 152.121094 311.140625 150.105469 310.53125 C 148.089844 309.917969 146.09375 309.257812 144.113281 308.550781 C 142.128906 307.839844 140.167969 307.082031 138.222656 306.277344 C 136.277344 305.472656 134.351562 304.621094 132.449219 303.71875 C 130.546875 302.820312 128.667969 301.875 126.8125 300.882812 C 124.953125 299.890625 123.125 298.851562 121.316406 297.769531 C 119.511719 296.6875 117.734375 295.5625 115.984375 294.390625 C 114.234375 293.222656 112.511719 292.011719 110.820312 290.757812 C 109.132812 289.503906 107.472656 288.207031 105.84375 286.871094 C 104.21875 285.535156 102.625 284.164062 101.066406 282.75 C 99.503906 281.335938 97.980469 279.882812 96.492188 278.394531 C 95.003906 276.90625 93.554688 275.382812 92.140625 273.824219 C 90.726562 272.261719 89.351562 270.671875 88.015625 269.042969 C 86.679688 267.414062 85.386719 265.757812 84.132812 264.066406 C 82.878906 262.375 81.664062 260.65625 80.496094 258.902344 C 79.328125 257.152344 78.199219 255.375 77.117188 253.570312 C 76.035156 251.765625 75 249.933594 74.007812 248.078125 C 73.015625 246.222656 72.070312 244.339844 71.167969 242.4375 C 70.269531 240.535156 69.414062 238.613281 68.609375 236.667969 C 67.804688 234.722656 67.046875 232.757812 66.339844 230.777344 C 65.628906 228.792969 64.96875 226.796875 64.359375 224.78125 C 63.746094 222.765625 63.183594 220.738281 62.671875 218.699219 C 62.164062 216.65625 61.703125 214.601562 61.289062 212.539062 C 60.878906 210.472656 60.519531 208.398438 60.210938 206.316406 C 59.902344 204.234375 59.644531 202.144531 59.4375 200.050781 C 59.230469 197.957031 59.078125 195.859375 58.972656 193.753906 C 58.871094 191.652344 58.820312 189.550781 58.820312 187.445312 C 58.820312 185.339844 58.871094 183.234375 58.972656 181.132812 C 59.078125 179.03125 59.230469 176.929688 59.4375 174.835938 C 59.644531 172.742188 59.902344 170.652344 60.210938 168.570312 C 60.519531 166.488281 60.878906 164.414062 61.289062 162.351562 C 61.703125 160.285156 62.164062 158.234375 62.671875 156.191406 C 63.183594 154.148438 63.746094 152.121094 64.359375 150.105469 C 64.96875 148.089844 65.628906 146.09375 66.339844 144.113281 C 67.046875 142.128906 67.804688 140.167969 68.609375 138.222656 C 69.414062 136.277344 70.269531 134.351562 71.167969 132.449219 C 72.070312 130.546875 73.015625 128.667969 74.007812 126.8125 C 75 124.953125 76.035156 123.125 77.117188 121.316406 C 78.199219 119.511719 79.328125 117.734375 80.496094 115.984375 C 81.664062 114.234375 82.878906 112.511719 84.132812 110.820312 C 85.386719 109.132812 86.679688 107.472656 88.015625 105.84375 C 89.351562 104.21875 90.726562 102.625 92.140625 101.066406 C 93.554688 99.503906 95.003906 97.980469 96.492188 96.492188 C 97.980469 95.003906 99.503906 93.554688 101.066406 92.140625 C 102.625 90.726562 104.21875 89.351562 105.84375 88.015625 C 107.472656 86.679688 109.132812 85.386719 110.820312 84.132812 C 112.511719 82.878906 114.234375 81.664062 115.984375 80.496094 C 117.734375 79.328125 119.511719 78.199219 121.316406 77.117188 C 123.125 76.035156 124.953125 75 126.8125 74.007812 C 128.667969 73.015625 130.546875 72.070312 132.449219 71.167969 C 134.351562 70.269531 136.277344 69.414062 138.222656 68.609375 C 140.167969 67.804688 142.128906 67.046875 144.113281 66.339844 C 146.09375 65.628906 148.089844 64.96875 150.105469 64.359375 C 152.121094 63.746094 154.148438 63.183594 156.191406 62.671875 C 158.234375 62.164062 160.285156 61.703125 162.351562 61.289062 C 164.414062 60.878906 166.488281 60.519531 168.570312 60.210938 C 170.652344 59.902344 172.742188 59.644531 174.835938 59.4375 C 176.929688 59.230469 179.03125 59.078125 181.132812 58.972656 C 183.234375 58.871094 185.339844 58.820312 187.445312 58.820312 C 189.550781 58.820312 191.652344 58.871094 193.753906 58.972656 C 195.859375 59.078125 197.957031 59.230469 200.050781 59.4375 C 202.144531 59.644531 204.234375 59.902344 206.316406 60.210938 C 208.398438 60.519531 210.472656 60.878906 212.539062 61.289062 C 214.601562 61.703125 216.65625 62.164062 218.699219 62.671875 C 220.738281 63.183594 222.765625 63.746094 224.78125 64.359375 C 226.796875 64.96875 228.792969 65.628906 230.777344 66.339844 C 232.757812 67.046875 234.722656 67.804688 236.667969 68.609375 C 238.613281 69.414062 240.535156 70.269531 242.4375 71.167969 C 244.339844 72.070312 246.222656 73.015625 248.078125 74.007812 C 249.933594 75 251.765625 76.035156 253.570312 77.117188 C 255.375 78.199219 257.152344 79.328125 258.902344 80.496094 C 260.65625 81.664062 262.375 82.878906 264.066406 84.132812 C 265.757812 85.386719 267.414062 86.679688 269.042969 88.015625 C 270.671875 89.351562 272.261719 90.726562 273.824219 92.140625 C 275.382812 93.554688 276.90625 95.003906 278.394531 96.492188 C 279.882812 97.980469 281.335938 99.503906 282.75 101.066406 C 284.164062 102.625 285.535156 104.21875 286.871094 105.84375 C 288.207031 107.472656 289.503906 109.132812 290.757812 110.820312 C 292.011719 112.511719 293.222656 114.234375 294.390625 115.984375 C 295.5625 117.734375 296.6875 119.511719 297.769531 121.316406 C 298.851562 123.125 299.890625 124.953125 300.882812 126.8125 C 301.875 128.667969 302.820312 130.546875 303.71875 132.449219 C 304.621094 134.351562 305.472656 136.277344 306.277344 138.222656 C 307.082031 140.167969 307.839844 142.128906 308.550781 144.113281 C 309.257812 146.09375 309.917969 148.089844 310.53125 150.105469 C 311.140625 152.121094 311.703125 154.148438 312.214844 156.191406 C 312.726562 158.234375 313.1875 160.285156 313.597656 162.351562 C 314.007812 164.414062 314.367188 166.488281 314.675781 168.570312 C 314.984375 170.652344 315.242188 172.742188 315.449219 174.835938 C 315.65625 176.929688 315.8125 179.03125 315.914062 181.132812 C 316.015625 183.234375 316.070312 185.339844 316.070312 187.445312 Z M 316.070312 187.445312 " fill-opacity="1" fill-rule="nonzero"/><path fill="#ff953e" d="M 187.445312 74.253906 C 190.679688 74.257812 193.90625 74.398438 197.128906 74.675781 C 200.351562 74.953125 203.554688 75.371094 206.742188 75.925781 C 209.929688 76.476562 213.085938 77.167969 216.210938 77.992188 C 219.339844 78.8125 222.425781 79.769531 225.472656 80.859375 C 228.515625 81.949219 231.511719 83.164062 234.453125 84.507812 C 237.394531 85.855469 240.269531 87.324219 243.085938 88.914062 C 245.902344 90.507812 248.644531 92.214844 251.3125 94.042969 C 253.980469 95.867188 256.566406 97.804688 259.070312 99.855469 C 261.574219 101.902344 263.984375 104.054688 266.304688 106.308594 C 268.621094 108.5625 270.839844 110.914062 272.957031 113.359375 C 275.074219 115.804688 277.082031 118.332031 278.984375 120.949219 C 280.882812 123.566406 282.667969 126.261719 284.335938 129.03125 C 286.007812 131.800781 287.554688 134.636719 288.980469 137.539062 C 290.40625 140.441406 291.707031 143.402344 292.878906 146.414062 C 294.054688 149.429688 295.09375 152.488281 296.007812 155.589844 C 296.917969 158.695312 297.695312 161.832031 298.335938 165 C 298.976562 168.171875 299.484375 171.363281 299.851562 174.574219 C 300.21875 177.789062 300.449219 181.011719 300.542969 184.242188 C 300.636719 187.476562 300.589844 190.707031 300.40625 193.9375 C 300.21875 197.164062 299.898438 200.378906 299.4375 203.582031 C 298.976562 206.78125 298.382812 209.957031 297.648438 213.109375 C 296.917969 216.257812 296.050781 219.371094 295.054688 222.449219 C 294.054688 225.523438 292.925781 228.550781 291.667969 231.53125 C 290.410156 234.511719 289.027344 237.429688 287.515625 240.292969 C 286.007812 243.152344 284.378906 245.941406 282.632812 248.664062 C 280.886719 251.386719 279.023438 254.027344 277.050781 256.589844 C 275.078125 259.152344 272.996094 261.625 270.808594 264.007812 C 268.625 266.390625 266.339844 268.675781 263.957031 270.863281 C 261.578125 273.050781 259.105469 275.132812 256.546875 277.109375 C 253.984375 279.085938 251.34375 280.949219 248.625 282.699219 C 245.90625 284.449219 243.117188 286.078125 240.253906 287.589844 C 237.394531 289.101562 234.476562 290.484375 231.5 291.746094 C 229.792969 292.46875 228.066406 293.148438 226.328125 293.78125 C 224.585938 294.417969 222.832031 295.011719 221.0625 295.5625 C 219.292969 296.113281 217.511719 296.621094 215.71875 297.082031 C 213.921875 297.542969 212.117188 297.964844 210.304688 298.335938 C 208.488281 298.710938 206.667969 299.039062 204.835938 299.324219 C 203.003906 299.609375 201.167969 299.851562 199.324219 300.042969 C 197.480469 300.238281 195.636719 300.386719 193.785156 300.492188 C 191.933594 300.59375 190.082031 300.652344 188.230469 300.667969 C 186.378906 300.679688 184.523438 300.648438 182.675781 300.570312 C 180.824219 300.492188 178.972656 300.367188 177.128906 300.199219 C 175.285156 300.03125 173.445312 299.816406 171.609375 299.554688 C 169.773438 299.296875 167.945312 298.992188 166.125 298.644531 C 164.308594 298.296875 162.496094 297.902344 160.695312 297.464844 C 158.894531 297.027344 157.105469 296.542969 155.328125 296.019531 C 153.554688 295.492188 151.789062 294.925781 150.039062 294.3125 C 148.292969 293.699219 146.558594 293.046875 144.84375 292.347656 C 143.125 291.652344 141.425781 290.914062 139.746094 290.132812 C 138.066406 289.351562 136.40625 288.53125 134.765625 287.667969 C 133.125 286.804688 131.507812 285.902344 129.910156 284.960938 C 128.316406 284.019531 126.742188 283.039062 125.195312 282.023438 C 123.648438 281.003906 122.125 279.945312 120.628906 278.855469 C 119.132812 277.761719 117.664062 276.628906 116.222656 275.464844 C 114.785156 274.300781 113.371094 273.097656 111.992188 271.863281 C 110.609375 270.628906 109.257812 269.363281 107.941406 268.058594 C 106.621094 266.757812 105.332031 265.425781 104.078125 264.0625 C 102.824219 262.699219 101.605469 261.304688 100.421875 259.878906 C 99.234375 258.457031 98.085938 257.003906 96.972656 255.523438 C 95.855469 254.042969 94.78125 252.535156 93.738281 251 C 92.699219 249.46875 91.699219 247.910156 90.734375 246.328125 C 89.769531 244.742188 88.847656 243.136719 87.960938 241.511719 C 87.078125 239.882812 86.230469 238.234375 85.429688 236.5625 C 84.625 234.894531 83.863281 233.207031 83.140625 231.5 C 82.421875 229.792969 81.742188 228.066406 81.105469 226.328125 C 80.46875 224.585938 79.875 222.832031 79.324219 221.0625 C 78.773438 219.292969 78.269531 217.511719 77.804688 215.71875 C 77.34375 213.921875 76.925781 212.117188 76.550781 210.304688 C 76.175781 208.488281 75.847656 206.667969 75.5625 204.835938 C 75.277344 203.003906 75.039062 201.167969 74.84375 199.324219 C 74.648438 197.480469 74.5 195.636719 74.398438 193.785156 C 74.292969 191.933594 74.234375 190.082031 74.222656 188.230469 C 74.207031 186.378906 74.242188 184.523438 74.320312 182.675781 C 74.398438 180.824219 74.519531 178.972656 74.691406 177.128906 C 74.859375 175.285156 75.074219 173.445312 75.332031 171.609375 C 75.589844 169.773438 75.894531 167.945312 76.242188 166.125 C 76.59375 164.308594 76.984375 162.496094 77.421875 160.695312 C 77.863281 158.894531 78.34375 157.105469 78.867188 155.328125 C 79.394531 153.554688 79.964844 151.789062 80.574219 150.039062 C 81.1875 148.292969 81.84375 146.558594 82.539062 144.84375 C 83.238281 143.125 83.976562 141.425781 84.757812 139.746094 C 85.535156 138.066406 86.359375 136.40625 87.21875 134.765625 C 88.082031 133.125 88.984375 131.507812 89.925781 129.910156 C 90.867188 128.316406 91.847656 126.742188 92.867188 125.195312 C 93.886719 123.648438 94.941406 122.125 96.035156 120.628906 C 97.128906 119.132812 98.257812 117.664062 99.421875 116.222656 C 100.589844 114.785156 101.789062 113.371094 103.023438 111.992188 C 104.257812 110.609375 105.527344 109.257812 106.828125 107.941406 C 108.128906 106.621094 109.460938 105.332031 110.824219 104.078125 C 112.191406 102.824219 113.585938 101.605469 115.007812 100.421875 C 116.433594 99.234375 117.886719 98.085938 119.367188 96.972656 C 120.847656 95.855469 122.355469 94.78125 123.886719 93.738281 C 125.421875 92.699219 126.980469 91.699219 128.5625 90.734375 C 130.144531 89.769531 131.75 88.847656 133.378906 87.960938 C 135.003906 87.078125 136.65625 86.230469 138.324219 85.429688 C 139.992188 84.625 141.683594 83.863281 143.390625 83.140625 C 150.359375 80.195312 157.550781 77.972656 164.96875 76.476562 C 172.386719 74.980469 179.878906 74.238281 187.445312 74.253906 M 187.445312 58.820312 C 116.40625 58.820312 58.820312 116.40625 58.820312 187.445312 C 58.820312 258.484375 116.40625 316.070312 187.445312 316.070312 C 258.484375 316.070312 316.070312 258.484375 316.070312 187.445312 C 316.070312 116.40625 258.484375 58.820312 187.445312 58.820312 Z M 187.445312 58.820312 " fill-opacity="1" fill-rule="nonzero"/></g><path fill="#ff953e" d="M 228.433594 146.453125 C 229.777344 147.796875 231.050781 149.199219 232.253906 150.667969 C 233.460938 152.136719 234.589844 153.660156 235.644531 155.238281 C 236.699219 156.816406 237.675781 158.441406 238.570312 160.117188 C 239.464844 161.792969 240.273438 163.503906 241 165.257812 C 241.726562 167.015625 242.367188 168.800781 242.917969 170.617188 C 243.46875 172.433594 243.929688 174.273438 244.300781 176.132812 C 244.671875 177.996094 244.949219 179.871094 245.136719 181.761719 C 245.320312 183.652344 245.414062 185.546875 245.414062 187.445312 C 245.414062 189.34375 245.320312 191.238281 245.136719 193.125 C 244.949219 195.015625 244.671875 196.890625 244.300781 198.753906 C 243.929688 200.617188 243.46875 202.457031 242.917969 204.273438 C 242.367188 206.089844 241.726562 207.875 241 209.628906 C 240.273438 211.382812 239.464844 213.097656 238.570312 214.769531 C 237.675781 216.445312 236.699219 218.070312 235.644531 219.652344 C 234.589844 221.230469 233.460938 222.753906 232.253906 224.21875 C 231.050781 225.6875 229.777344 227.09375 228.433594 228.433594 C 227.09375 229.777344 225.6875 231.050781 224.21875 232.253906 C 222.753906 233.460938 221.230469 234.589844 219.652344 235.644531 C 218.070312 236.699219 216.445312 237.675781 214.769531 238.570312 C 213.097656 239.464844 211.382812 240.273438 209.628906 241 C 207.875 241.726562 206.089844 242.367188 204.273438 242.917969 C 202.453125 243.46875 200.617188 243.929688 198.753906 244.300781 C 196.890625 244.671875 195.015625 244.949219 193.125 245.136719 C 191.238281 245.320312 189.34375 245.414062 187.445312 245.414062 C 185.546875 245.414062 183.652344 245.320312 181.761719 245.136719 C 179.871094 244.949219 177.996094 244.671875 176.132812 244.300781 C 174.273438 243.929688 172.433594 243.46875 170.617188 242.917969 C 168.800781 242.367188 167.015625 241.726562 165.257812 241 C 163.503906 240.273438 161.792969 239.464844 160.117188 238.570312 C 158.441406 237.675781 156.816406 236.699219 155.238281 235.644531 C 153.660156 234.589844 152.136719 233.460938 150.667969 232.253906 C 149.199219 231.050781 147.796875 229.777344 146.453125 228.433594 C 145.109375 227.09375 143.835938 225.6875 142.632812 224.21875 C 141.429688 222.753906 140.296875 221.230469 139.242188 219.652344 C 138.1875 218.070312 137.214844 216.445312 136.320312 214.769531 C 135.421875 213.097656 134.613281 211.382812 133.886719 209.628906 C 133.160156 207.875 132.519531 206.089844 131.96875 204.273438 C 131.417969 202.453125 130.957031 200.617188 130.585938 198.753906 C 130.21875 196.890625 129.9375 195.015625 129.753906 193.125 C 129.566406 191.238281 129.472656 189.34375 129.472656 187.445312 C 129.472656 185.546875 129.566406 183.652344 129.753906 181.761719 C 129.9375 179.871094 130.21875 177.996094 130.585938 176.132812 C 130.957031 174.273438 131.417969 172.433594 131.96875 170.617188 C 132.519531 168.800781 133.160156 167.015625 133.886719 165.257812 C 134.613281 163.503906 135.421875 161.792969 136.320312 160.117188 C 137.214844 158.441406 138.1875 156.816406 139.242188 155.238281 C 140.296875 153.660156 141.429688 152.136719 142.632812 150.667969 C 143.835938 149.199219 145.109375 147.796875 146.453125 146.453125 C 147.796875 145.109375 149.199219 143.835938 150.667969 142.632812 C 152.136719 141.429688 153.660156 140.296875 155.238281 139.242188 C 156.816406 138.1875 158.441406 137.214844 160.117188 136.320312 C 161.792969 135.421875 163.503906 134.613281 165.257812 133.886719 C 167.015625 133.160156 168.800781 132.519531 170.617188 131.96875 C 172.433594 131.417969 174.273438 130.957031 176.132812 130.585938 C 177.996094 130.21875 179.871094 129.9375 181.761719 129.753906 C 183.652344 129.566406 185.546875 129.472656 187.445312 129.472656 C 189.34375 129.472656 191.238281 129.566406 193.125 129.753906 C 195.015625 129.9375 196.890625 130.21875 198.753906 130.585938 C 200.617188 130.957031 202.453125 131.417969 204.273438 131.96875 C 206.089844 132.519531 207.875 133.160156 209.628906 133.886719 C 211.382812 134.613281 213.097656 135.421875 214.769531 136.320312 C 216.445312 137.214844 218.070312 138.1875 219.652344 139.242188 C 221.230469 140.296875 222.753906 141.429688 224.21875 142.632812 C 225.6875 143.835938 227.09375 145.109375 228.433594 146.453125 Z M 228.433594 146.453125 " fill-opacity="1" fill-rule="nonzero"/><path fill="#ff953e" d="M 187.445312 136.335938 C 188.417969 136.335938 189.394531 136.363281 190.371094 136.421875 C 191.34375 136.476562 192.316406 136.558594 193.285156 136.671875 C 194.253906 136.78125 195.21875 136.921875 196.179688 137.089844 C 197.144531 137.253906 198.097656 137.449219 199.050781 137.671875 C 200 137.894531 200.941406 138.140625 201.878906 138.417969 C 202.816406 138.691406 203.742188 138.996094 204.660156 139.324219 C 205.582031 139.652344 206.488281 140.007812 207.386719 140.386719 C 208.285156 140.769531 209.171875 141.175781 210.046875 141.605469 C 210.921875 142.039062 211.785156 142.492188 212.636719 142.976562 C 213.484375 143.457031 214.320312 143.960938 215.140625 144.488281 C 215.957031 145.019531 216.761719 145.570312 217.550781 146.144531 C 218.339844 146.71875 219.113281 147.316406 219.867188 147.9375 C 220.621094 148.554688 221.355469 149.195312 222.074219 149.855469 C 222.792969 150.515625 223.492188 151.199219 224.167969 151.898438 C 224.847656 152.601562 225.507812 153.320312 226.144531 154.058594 C 226.78125 154.800781 227.398438 155.554688 227.992188 156.328125 C 228.585938 157.105469 229.15625 157.894531 229.707031 158.703125 C 230.253906 159.507812 230.78125 160.332031 231.28125 161.167969 C 231.78125 162.003906 232.261719 162.855469 232.714844 163.71875 C 233.167969 164.582031 233.59375 165.460938 233.996094 166.347656 C 234.398438 167.238281 234.777344 168.136719 235.128906 169.046875 C 235.480469 169.957031 235.804688 170.878906 236.101562 171.808594 C 236.402344 172.738281 236.671875 173.671875 236.917969 174.617188 C 237.164062 175.5625 237.378906 176.511719 237.570312 177.46875 C 237.761719 178.425781 237.925781 179.390625 238.058594 180.355469 C 238.195312 181.320312 238.300781 182.292969 238.382812 183.265625 C 238.460938 184.238281 238.515625 185.210938 238.539062 186.1875 C 238.5625 187.164062 238.558594 188.136719 238.527344 189.113281 C 238.496094 190.089844 238.433594 191.0625 238.347656 192.035156 C 238.257812 193.003906 238.144531 193.972656 238 194.941406 C 237.859375 195.90625 237.6875 196.867188 237.488281 197.820312 C 237.289062 198.777344 237.066406 199.726562 236.8125 200.667969 C 236.5625 201.609375 236.28125 202.546875 235.976562 203.472656 C 235.667969 204.398438 235.335938 205.316406 234.976562 206.222656 C 234.621094 207.132812 234.234375 208.027344 233.824219 208.914062 C 233.414062 209.800781 232.980469 210.671875 232.519531 211.53125 C 232.0625 212.394531 231.578125 213.238281 231.066406 214.074219 C 230.558594 214.90625 230.027344 215.722656 229.472656 216.527344 C 228.917969 217.328125 228.339844 218.113281 227.738281 218.882812 C 227.136719 219.652344 226.515625 220.40625 225.875 221.136719 C 225.230469 221.871094 224.566406 222.585938 223.882812 223.28125 C 223.199219 223.980469 222.492188 224.652344 221.769531 225.308594 C 221.046875 225.964844 220.304688 226.597656 219.546875 227.210938 C 218.789062 227.824219 218.011719 228.414062 217.21875 228.984375 C 216.425781 229.550781 215.617188 230.097656 214.792969 230.621094 C 213.96875 231.140625 213.128906 231.640625 212.277344 232.113281 C 211.421875 232.589844 210.558594 233.039062 209.679688 233.460938 C 208.800781 233.886719 207.910156 234.285156 207.007812 234.660156 C 206.105469 235.03125 205.195312 235.378906 204.273438 235.703125 C 203.351562 236.023438 202.421875 236.316406 201.484375 236.585938 C 200.546875 236.855469 199.601562 237.09375 198.648438 237.308594 C 197.695312 237.523438 196.738281 237.707031 195.773438 237.867188 C 194.8125 238.027344 193.847656 238.160156 192.875 238.261719 C 191.90625 238.367188 190.933594 238.441406 189.957031 238.488281 C 188.984375 238.539062 188.007812 238.558594 187.03125 238.550781 C 186.054688 238.542969 185.082031 238.503906 184.109375 238.441406 C 183.132812 238.378906 182.164062 238.285156 181.195312 238.167969 C 180.226562 238.046875 179.261719 237.902344 178.300781 237.726562 C 177.339844 237.550781 176.386719 237.347656 175.4375 237.121094 C 174.488281 236.890625 173.546875 236.632812 172.613281 236.351562 C 171.679688 236.066406 170.753906 235.757812 169.839844 235.421875 C 168.921875 235.085938 168.019531 234.722656 167.121094 234.335938 C 166.226562 233.949219 165.34375 233.535156 164.472656 233.097656 C 163.601562 232.65625 162.742188 232.195312 161.894531 231.707031 C 161.050781 231.21875 160.222656 230.707031 159.40625 230.171875 C 158.589844 229.636719 157.789062 229.078125 157.003906 228.496094 C 156.222656 227.914062 155.453125 227.3125 154.707031 226.6875 C 153.957031 226.0625 153.226562 225.414062 152.511719 224.746094 C 151.800781 224.082031 151.109375 223.394531 150.433594 222.6875 C 149.761719 221.980469 149.109375 221.253906 148.480469 220.511719 C 147.847656 219.765625 147.238281 219.003906 146.648438 218.226562 C 146.0625 217.449219 145.496094 216.652344 144.953125 215.839844 C 144.414062 215.03125 143.894531 214.203125 143.398438 213.363281 C 142.90625 212.519531 142.433594 211.667969 141.988281 210.796875 C 141.542969 209.929688 141.121094 209.050781 140.726562 208.160156 C 140.332031 207.265625 139.960938 206.363281 139.617188 205.449219 C 139.273438 204.535156 138.957031 203.613281 138.664062 202.683594 C 138.375 201.75 138.109375 200.8125 137.871094 199.867188 C 137.636719 198.917969 137.425781 197.964844 137.242188 197.007812 C 137.058594 196.050781 136.90625 195.085938 136.777344 194.117188 C 136.648438 193.152344 136.550781 192.179688 136.476562 191.207031 C 136.40625 190.234375 136.363281 189.261719 136.347656 188.285156 C 136.332031 187.308594 136.34375 186.332031 136.382812 185.359375 C 136.421875 184.382812 136.488281 183.410156 136.585938 182.4375 C 136.679688 181.46875 136.804688 180.5 136.957031 179.535156 C 137.105469 178.570312 137.285156 177.613281 137.492188 176.660156 C 137.695312 175.703125 137.929688 174.757812 138.191406 173.816406 C 138.449219 172.875 138.738281 171.945312 139.050781 171.019531 C 139.363281 170.097656 139.703125 169.183594 140.070312 168.277344 C 140.4375 167.371094 140.828125 166.480469 141.246094 165.597656 C 141.660156 164.714844 142.105469 163.84375 142.570312 162.988281 C 143.039062 162.132812 143.527344 161.289062 144.042969 160.460938 C 144.558594 159.632812 145.097656 158.816406 145.660156 158.019531 C 146.222656 157.222656 146.804688 156.441406 147.414062 155.675781 C 148.019531 154.910156 148.648438 154.164062 149.296875 153.4375 C 149.945312 152.707031 150.617188 152 151.304688 151.308594 C 153.671875 148.929688 156.25 146.804688 159.039062 144.933594 C 161.828125 143.066406 164.773438 141.488281 167.875 140.203125 C 170.976562 138.917969 174.175781 137.949219 177.46875 137.300781 C 180.761719 136.648438 184.085938 136.328125 187.445312 136.335938 M 187.445312 122.617188 C 151.636719 122.617188 122.617188 151.640625 122.617188 187.445312 C 122.617188 223.246094 151.640625 252.269531 187.445312 252.269531 C 223.246094 252.269531 252.269531 223.246094 252.269531 187.445312 C 252.269531 151.640625 223.25 122.617188 187.445312 122.617188 Z M 187.445312 122.617188 " fill-opacity="1" fill-rule="nonzero"/><g clip-path="url(#09652f8063)"><g clip-path="url(#4cf3fc68b0)"><path fill="#ff953e" d="M 207.164062 214.820312 L 203.390625 192.84375 L 219.355469 177.28125 L 197.296875 174.066406 L 187.445312 154.082031 L 177.558594 174.066406 L 155.515625 177.269531 L 135.78125 187.644531 L 116.046875 177.269531 L 119.820312 199.246094 L 103.855469 214.808594 L 125.921875 218.015625 L 135.789062 238.007812 L 145.65625 218.015625 L 167.699219 214.8125 L 187.445312 204.441406 Z M 167.699219 214.789062 L 151.746094 199.242188 L 155.519531 177.292969 L 171.46875 192.835938 Z M 167.699219 214.789062 " fill-opacity="1" fill-rule="nonzero"/></g></g><g clip-path="url(#10abbd10ea)"><g clip-path="url(#4ff90307f5)"><path fill="#ff953e" d="M 207.164062 214.820312 L 187.425781 225.195312 L 167.691406 214.820312 L 171.460938 236.792969 L 155.492188 252.359375 L 177.558594 255.566406 L 187.425781 275.5625 L 197.296875 255.566406 L 219.359375 252.359375 L 203.394531 236.792969 Z M 207.164062 214.820312 " fill-opacity="1" fill-rule="nonzero"/></g></g><g clip-path="url(#bde75da6a5)"><g clip-path="url(#da02be00ae)"><path fill="#ff953e" d="M 255.074219 199.257812 L 258.839844 177.28125 L 239.105469 187.65625 L 219.371094 177.28125 L 223.140625 199.257812 L 207.171875 214.820312 L 229.238281 218.027344 L 239.105469 238.019531 L 248.972656 218.027344 L 271.039062 214.820312 Z M 255.074219 199.257812 " fill-opacity="1" fill-rule="nonzero"/></g></g><g clip-path="url(#5239027df1)"><g clip-path="url(#9b7f4ae038)"><path fill="#ff953e" d="M 145.625 157.273438 L 155.492188 177.265625 L 165.363281 157.273438 L 187.425781 154.066406 L 171.460938 138.5 L 175.230469 116.523438 L 155.492188 126.902344 L 135.757812 116.523438 L 139.527344 138.5 L 123.558594 154.066406 Z M 145.625 157.273438 " fill-opacity="1" fill-rule="nonzero"/></g></g><g clip-path="url(#5e216dedbc)"><g clip-path="url(#be41b826e4)"><path fill="#ff953e" d="M 219.359375 177.265625 L 229.226562 157.273438 L 251.292969 154.066406 L 235.328125 138.5 L 239.097656 116.523438 L 219.359375 126.902344 L 199.625 116.523438 L 203.394531 138.5 L 187.425781 154.066406 L 209.492188 157.273438 Z M 219.359375 177.265625 " fill-opacity="1" fill-rule="nonzero"/></g></g><path fill="#ff953e" d="M 100.414062 176.703125 L 103.902344 183.773438 L 111.707031 184.910156 L 106.058594 190.410156 L 107.394531 198.183594 L 100.414062 194.511719 L 93.4375 198.183594 L 94.769531 190.410156 L 89.125 184.910156 L 96.925781 183.773438 Z M 100.414062 176.703125 " fill-opacity="1" fill-rule="nonzero"/><path fill="#ff953e" d="M 276.6875 176.703125 L 280.175781 183.773438 L 287.972656 184.910156 L 282.328125 190.410156 L 283.664062 198.183594 L 276.6875 194.511719 L 269.707031 198.183594 L 271.039062 190.410156 L 265.394531 184.910156 L 273.195312 183.773438 Z M 276.6875 176.703125 " fill-opacity="1" fill-rule="nonzero"/><path fill="#b77748" d="M 209.484375 245.484375 C 237.785156 244.226562 239.253906 226.6875 239.253906 212.296875 C 239.253906 200.683594 242.585938 199.023438 242.585938 190.726562 C 242.585938 177.449219 237.589844 174.132812 237.589844 162.515625 C 239.253906 162.515625 240.917969 160.855469 240.917969 160.855469 C 240.917969 160.855469 237.589844 157.539062 234.257812 145.921875 C 230.925781 134.308594 217.605469 122.691406 197.621094 122.691406 C 189.292969 122.691406 182.632812 124.351562 182.632812 124.351562 C 182.632812 124.351562 177.636719 122.691406 170.972656 122.691406 C 160.980469 122.691406 132.671875 129.328125 132.671875 192.386719 C 132.671875 194.042969 134.335938 197.363281 137.667969 199.023438 C 137.667969 213.957031 136 217.277344 136 223.914062 C 136 228.890625 140.789062 245.484375 165.769531 245.484375 C 171.738281 249.375 179.234375 252.121094 187.628906 252.121094 C 196.019531 252.121094 203.519531 249.375 209.484375 245.484375 Z M 209.484375 245.484375 " fill-opacity="1" fill-rule="nonzero"/><path fill="#ead6c7" d="M 216.769531 160.027344 C 178.46875 160.027344 173.472656 148.410156 173.472656 148.410156 C 173.472656 148.410156 173.472656 155.050781 176.800781 160.027344 C 168.476562 156.707031 166.808594 150.070312 166.808594 150.070312 C 163.480469 155.050781 163.480469 161.6875 163.480469 161.6875 C 160.148438 158.367188 160.148438 151.730469 160.148438 151.730469 C 160.148438 151.730469 156.324219 154.988281 155.152344 166.664062 C 154.761719 170.554688 153.8125 173.78125 152.605469 176.480469 L 152.648438 176.433594 C 150.839844 180.441406 150.15625 183.285156 150.15625 188.238281 C 150.15625 193.1875 150.15625 218.105469 150.15625 223.082031 C 150.15625 231.378906 165.144531 251.292969 187.628906 251.292969 C 210.109375 251.292969 225.097656 231.378906 225.097656 223.082031 C 225.097656 218.363281 225.097656 176.621094 225.097656 176.621094 C 225.097656 168.324219 218.4375 166.664062 216.769531 160.027344 Z M 216.769531 160.027344 " fill-opacity="1" fill-rule="nonzero"/><path fill="#ead6c7" d="M 230.09375 186.578125 C 225.097656 184.089844 225.097656 178.28125 225.097656 176.621094 L 225.097656 214.785156 C 231.757812 208.148438 231.757812 193.214844 231.757812 187.40625 L 231.707031 187.304688 C 231.214844 187.105469 230.691406 186.875 230.09375 186.578125 Z M 230.09375 186.578125 " fill-opacity="1" fill-rule="nonzero"/><path fill="#ead6c7" d="M 152.605469 176.476562 C 149.882812 182.550781 145.816406 185.835938 143.535156 187.285156 L 143.496094 187.40625 C 143.496094 193.214844 143.496094 208.148438 150.15625 214.785156 C 150.15625 205.421875 150.15625 191.765625 150.15625 188.238281 C 150.15625 183.285156 150.839844 180.441406 152.648438 176.433594 L 152.605469 176.476562 C 152.605469 176.480469 152.605469 176.480469 152.605469 176.476562 Z M 152.605469 176.476562 " fill-opacity="1" fill-rule="nonzero"/><path fill="#d68f53" d="M 205.113281 223.082031 C 205.113281 223.082031 202.503906 217.953125 192.230469 216.722656 C 191.132812 217.527344 189.492188 218.105469 187.628906 218.105469 C 185.765625 218.105469 184.121094 217.527344 183.027344 216.722656 C 172.75 217.953125 170.140625 223.082031 170.140625 223.082031 C 150.15625 210.015625 150.15625 188.238281 150.15625 188.238281 C 150.15625 193.1875 150.15625 218.105469 150.15625 223.082031 C 150.15625 231.378906 165.144531 251.292969 187.628906 251.292969 C 210.109375 251.292969 225.097656 231.378906 225.097656 223.082031 C 225.097656 219.988281 225.097656 200.960938 225.097656 188.238281 C 225.097656 188.238281 225.097656 210.015625 205.113281 223.082031 Z M 205.113281 223.082031 " fill-opacity="1" fill-rule="nonzero"/><path fill="#1f212b" d="M 170.972656 179.109375 C 169.472656 179.109375 168.140625 179.898438 167.226562 181.117188 C 167.59375 180.902344 168.019531 180.769531 168.476562 180.769531 C 169.855469 180.769531 170.972656 181.886719 170.972656 183.257812 C 170.972656 184.632812 169.855469 185.746094 168.476562 185.746094 C 167.316406 185.746094 166.347656 184.953125 166.066406 183.886719 C 166.015625 184.222656 165.976562 184.566406 165.976562 184.917969 C 165.976562 188.125 168.214844 190.726562 170.972656 190.726562 C 173.734375 190.726562 175.96875 188.125 175.96875 184.917969 C 175.96875 181.710938 173.734375 179.109375 170.972656 179.109375 Z M 170.972656 179.109375 " fill-opacity="1" fill-rule="nonzero"/><path fill="#1f212b" d="M 204.28125 179.109375 C 202.777344 179.109375 201.449219 179.898438 200.53125 181.117188 C 200.902344 180.902344 201.324219 180.769531 201.78125 180.769531 C 203.160156 180.769531 204.28125 181.886719 204.28125 183.257812 C 204.28125 184.632812 203.160156 185.746094 201.78125 185.746094 C 200.621094 185.746094 199.65625 184.953125 199.375 183.886719 C 199.324219 184.222656 199.285156 184.566406 199.285156 184.917969 C 199.285156 188.125 201.523438 190.726562 204.28125 190.726562 C 207.039062 190.726562 209.277344 188.125 209.277344 184.917969 C 209.277344 181.710938 207.039062 179.109375 204.28125 179.109375 Z M 204.28125 179.109375 " fill-opacity="1" fill-rule="nonzero"/><path fill="#1f212b" d="M 180.964844 184.089844 C 176.683594 184.089844 173.820312 182.480469 171.296875 181.0625 C 169.433594 180.015625 167.820312 179.109375 165.976562 179.109375 C 161.257812 179.109375 158.617188 182.125 158.507812 182.253906 L 155.957031 180.121094 C 156.101562 179.945312 159.648438 175.792969 165.976562 175.792969 C 168.695312 175.792969 170.847656 177 172.933594 178.171875 C 175.207031 179.449219 177.558594 180.769531 180.964844 180.769531 Z M 180.964844 184.089844 " fill-opacity="1" fill-rule="nonzero"/><path fill="#1f212b" d="M 194.289062 184.089844 L 194.289062 180.769531 C 197.699219 180.769531 200.050781 179.449219 202.324219 178.171875 C 204.40625 177 206.558594 175.792969 209.277344 175.792969 C 215.605469 175.792969 219.152344 179.945312 219.300781 180.121094 L 216.746094 182.253906 C 216.636719 182.125 214 179.109375 209.277344 179.109375 C 207.433594 179.109375 205.824219 180.015625 203.960938 181.0625 C 201.433594 182.480469 198.570312 184.089844 194.289062 184.089844 Z M 194.289062 184.089844 " fill-opacity="1" fill-rule="nonzero"/><path fill="#1f212b" d="M 201.78125 232.210938 C 201.695312 232.210938 201.609375 232.195312 201.523438 232.167969 C 201.472656 232.152344 196.515625 230.550781 187.628906 230.550781 C 178.738281 230.550781 173.785156 232.152344 173.734375 232.167969 C 173.339844 232.296875 172.90625 232.121094 172.722656 231.746094 C 172.542969 231.371094 172.664062 230.921875 173.011719 230.691406 C 173.222656 230.550781 178.324219 227.230469 187.628906 227.230469 C 196.933594 227.230469 202.03125 230.550781 202.246094 230.691406 C 202.589844 230.921875 202.710938 231.371094 202.53125 231.746094 C 202.386719 232.035156 202.09375 232.210938 201.78125 232.210938 Z M 201.78125 232.210938 " fill-opacity="1" fill-rule="nonzero"/><path fill="#1f212b" d="M 185.128906 175.792969 C 184.726562 175.792969 184.371094 175.496094 184.308594 175.089844 C 184.328125 175.152344 183.546875 174.132812 178.46875 174.132812 C 171.375 174.132812 169.476562 170.507812 169.398438 170.355469 C 169.191406 169.945312 169.359375 169.449219 169.769531 169.242188 C 170.183594 169.042969 170.675781 169.203125 170.882812 169.605469 C 170.953125 169.738281 172.503906 172.472656 178.46875 172.472656 C 184.675781 172.472656 185.820312 173.957031 185.953125 174.839844 C 186.019531 175.292969 185.707031 175.714844 185.25 175.78125 C 185.210938 175.789062 185.167969 175.792969 185.128906 175.792969 Z M 185.128906 175.792969 " fill-opacity="1" fill-rule="nonzero"/><path fill="#1f212b" d="M 206.777344 167.496094 C 206.691406 167.496094 206.605469 167.480469 206.515625 167.453125 C 206.46875 167.4375 201.582031 165.835938 196.785156 165.835938 C 194.371094 165.835938 192.386719 166.230469 190.289062 166.648438 C 188.203125 167.066406 186.046875 167.496094 183.464844 167.496094 C 174.890625 167.496094 171.363281 164.078125 171.21875 163.933594 C 170.890625 163.609375 170.890625 163.085938 171.21875 162.761719 C 171.542969 162.4375 172.066406 162.4375 172.390625 162.757812 C 172.421875 162.789062 175.648438 165.835938 183.464844 165.835938 C 185.878906 165.835938 187.863281 165.441406 189.960938 165.023438 C 192.050781 164.605469 194.207031 164.175781 196.785156 164.175781 C 201.859375 164.175781 206.832031 165.808594 207.042969 165.878906 C 207.480469 166.023438 207.714844 166.492188 207.570312 166.925781 C 207.453125 167.277344 207.128906 167.496094 206.777344 167.496094 Z M 206.777344 167.496094 " fill-opacity="1" fill-rule="nonzero"/><path fill="#1f212b" d="M 187.628906 252.121094 C 164.589844 252.121094 149.324219 231.457031 149.324219 223.082031 L 149.324219 188.238281 C 149.324219 186.195312 149.433594 184.488281 149.699219 182.882812 C 146.160156 187.234375 142.433594 188.878906 142.160156 189 C 141.742188 189.179688 141.25 188.984375 141.066406 188.5625 C 140.886719 188.144531 141.082031 187.65625 141.5 187.472656 C 141.613281 187.425781 152.734375 182.453125 154.328125 166.582031 C 155.519531 154.710938 159.441406 151.238281 159.609375 151.097656 C 159.855469 150.890625 160.199219 150.839844 160.5 150.976562 C 160.792969 151.113281 160.980469 151.40625 160.980469 151.730469 C 160.980469 151.785156 161.011719 156.183594 162.804688 159.398438 C 163.089844 156.941406 163.882812 152.949219 166.117188 149.613281 C 166.300781 149.339844 166.621094 149.199219 166.949219 149.257812 C 167.273438 149.3125 167.535156 149.550781 167.617188 149.871094 C 167.675781 150.097656 168.980469 154.929688 174.8125 158.171875 C 172.667969 153.550781 172.640625 148.652344 172.640625 148.410156 C 172.640625 148.019531 172.917969 147.679688 173.304688 147.597656 C 173.703125 147.523438 174.082031 147.722656 174.238281 148.085938 C 174.285156 148.1875 179.734375 159.199219 216.769531 159.199219 C 217.152344 159.199219 217.488281 159.457031 217.578125 159.828125 C 218.246094 162.484375 219.769531 164.289062 221.382812 166.199219 C 223.621094 168.84375 225.929688 171.578125 225.929688 176.621094 L 225.929688 223.082031 C 225.929688 231.457031 210.667969 252.121094 187.628906 252.121094 Z M 153.03125 177.621094 C 151.496094 181.234375 150.988281 183.945312 150.988281 188.238281 L 150.988281 223.082031 C 150.988281 230.980469 165.589844 250.464844 187.628906 250.464844 C 209.664062 250.464844 224.265625 230.980469 224.265625 223.082031 L 224.265625 176.621094 C 224.265625 172.183594 222.246094 169.792969 220.109375 167.265625 C 218.5625 165.433594 216.964844 163.546875 216.136719 160.855469 C 188.480469 160.765625 178.164062 154.597656 174.53125 151.09375 C 174.855469 153.398438 175.628906 156.777344 177.496094 159.566406 C 177.695312 159.871094 177.679688 160.269531 177.449219 160.550781 C 177.21875 160.835938 176.832031 160.933594 176.496094 160.796875 C 170.421875 158.375 167.734375 154.289062 166.652344 151.980469 C 164.34375 156.453125 164.3125 161.628906 164.3125 161.6875 C 164.3125 162.023438 164.109375 162.324219 163.796875 162.453125 C 163.488281 162.585938 163.132812 162.511719 162.890625 162.273438 C 160.597656 159.988281 159.777344 156.351562 159.480469 154 C 158.332031 155.9375 156.675781 159.816406 155.980469 166.75 C 155.542969 171.121094 154.4375 174.703125 153.03125 177.621094 Z M 153.03125 177.621094 " fill-opacity="1" fill-rule="nonzero"/><path fill="#1f212b" d="M 150.15625 215.617188 C 149.945312 215.617188 149.730469 215.535156 149.566406 215.375 C 142.664062 208.492188 142.664062 193.175781 142.664062 187.40625 C 142.664062 186.949219 143.035156 186.578125 143.496094 186.578125 C 143.953125 186.578125 144.328125 186.949219 144.328125 187.40625 C 144.328125 192.984375 144.328125 207.804688 150.746094 214.199219 C 151.070312 214.523438 151.070312 215.050781 150.746094 215.371094 C 150.582031 215.535156 150.371094 215.617188 150.15625 215.617188 Z M 150.15625 215.617188 " fill-opacity="1" fill-rule="nonzero"/><path fill="#1f212b" d="M 225.097656 215.617188 C 224.886719 215.617188 224.671875 215.535156 224.507812 215.375 C 224.183594 215.050781 224.183594 214.523438 224.507812 214.203125 C 230.925781 207.804688 230.925781 192.984375 230.925781 187.40625 C 230.925781 186.949219 231.300781 186.578125 231.757812 186.578125 C 232.21875 186.578125 232.59375 186.949219 232.59375 187.40625 C 232.59375 193.175781 232.59375 208.492188 225.6875 215.375 C 225.523438 215.535156 225.3125 215.617188 225.097656 215.617188 Z M 225.097656 215.617188 " fill-opacity="1" fill-rule="nonzero"/><path fill="#1f212b" d="M 235.089844 189.066406 C 234.902344 189.066406 233.128906 189.019531 229.722656 187.320312 C 226.101562 185.515625 224.265625 181.917969 224.265625 176.621094 C 224.265625 176.164062 224.636719 175.792969 225.097656 175.792969 C 225.558594 175.792969 225.929688 176.164062 225.929688 176.621094 C 225.929688 181.234375 227.457031 184.335938 230.46875 185.835938 C 233.523438 187.359375 235.082031 187.40625 235.097656 187.40625 C 235.554688 187.417969 235.921875 187.789062 235.917969 188.246094 C 235.914062 188.699219 235.546875 189.066406 235.089844 189.066406 Z M 235.089844 189.066406 " fill-opacity="1" fill-rule="nonzero"/><path fill="#1f212b" d="M 170.136719 223.910156 C 169.976562 223.910156 169.820312 223.867188 169.683594 223.777344 C 149.558594 210.617188 149.324219 188.460938 149.324219 188.238281 C 149.324219 187.777344 149.695312 187.40625 150.15625 187.40625 C 150.617188 187.40625 150.988281 187.777344 150.988281 188.238281 C 150.988281 188.449219 151.234375 209.226562 169.910156 221.933594 C 171.109375 220.359375 174.640625 216.894531 182.925781 215.902344 C 183.371094 215.84375 183.792969 216.167969 183.851562 216.625 C 183.90625 217.082031 183.582031 217.492188 183.121094 217.546875 C 173.492188 218.703125 170.902344 223.417969 170.878906 223.464844 C 170.769531 223.671875 170.574219 223.824219 170.347656 223.882812 C 170.28125 223.902344 170.210938 223.910156 170.136719 223.910156 Z M 170.136719 223.910156 " fill-opacity="1" fill-rule="nonzero"/><path fill="#1f212b" d="M 205.113281 223.914062 C 205.042969 223.914062 204.96875 223.90625 204.898438 223.886719 C 204.667969 223.824219 204.476562 223.667969 204.371094 223.457031 C 204.347656 223.417969 201.761719 218.703125 192.128906 217.546875 C 191.675781 217.492188 191.347656 217.082031 191.402344 216.625 C 191.457031 216.167969 191.886719 215.851562 192.328125 215.902344 C 200.617188 216.894531 204.144531 220.359375 205.34375 221.933594 C 224.046875 209.210938 224.265625 188.449219 224.265625 188.238281 C 224.265625 187.777344 224.636719 187.40625 225.097656 187.40625 C 225.558594 187.40625 225.929688 187.777344 225.929688 188.238281 C 225.929688 188.460938 225.699219 210.617188 205.570312 223.777344 C 205.433594 223.867188 205.273438 223.914062 205.113281 223.914062 Z M 205.113281 223.914062 " fill-opacity="1" fill-rule="nonzero"/><path fill="#1f212b" d="M 187.628906 218.933594 C 185.601562 218.933594 183.65625 218.324219 182.339844 217.285156 C 180.996094 217.371094 179.6875 218.011719 179.671875 218.019531 C 179.535156 218.085938 179.382812 218.117188 179.230469 218.101562 C 178.101562 218.007812 175.96875 217.152344 175.96875 214.578125 C 175.96875 211.816406 178.007812 210.769531 178.09375 210.726562 C 178.507812 210.523438 179.007812 210.6875 179.210938 211.097656 C 179.417969 211.507812 179.25 212.007812 178.839844 212.210938 C 178.800781 212.230469 177.636719 212.871094 177.636719 214.578125 C 177.636719 215.96875 178.707031 216.332031 179.171875 216.417969 C 179.734375 216.175781 181.164062 215.617188 182.632812 215.617188 C 182.835938 215.617188 183.035156 215.691406 183.1875 215.828125 C 184.1875 216.722656 185.886719 217.277344 187.628906 217.277344 C 189.367188 217.277344 191.066406 216.722656 192.066406 215.828125 C 192.21875 215.691406 192.417969 215.617188 192.625 215.617188 C 194.085938 215.617188 195.519531 216.171875 196.078125 216.417969 C 196.566406 216.324219 197.621094 215.957031 197.621094 214.578125 C 197.621094 212.871094 196.457031 212.230469 196.40625 212.203125 C 196.003906 211.992188 195.84375 211.492188 196.050781 211.089844 C 196.261719 210.6875 196.753906 210.523438 197.160156 210.726562 C 197.246094 210.769531 199.285156 211.816406 199.285156 214.578125 C 199.285156 217.152344 197.152344 218.007812 196.023438 218.101562 C 195.871094 218.113281 195.71875 218.085938 195.582031 218.019531 C 195.570312 218.011719 194.261719 217.371094 192.914062 217.285156 C 191.597656 218.324219 189.652344 218.933594 187.628906 218.933594 Z M 187.628906 218.933594 " fill-opacity="1" fill-rule="nonzero"/><g clip-path="url(#69d225e1ad)"><path fill="#1f212b" d="M 187.628906 253.78125 C 177.847656 253.78125 170.136719 250.234375 165.273438 247.144531 C 140.035156 246.921875 134.335938 229.902344 134.335938 223.914062 C 134.335938 221.15625 134.613281 218.941406 134.933594 216.378906 C 135.390625 212.734375 135.957031 208.226562 136 199.988281 C 132.890625 198.03125 131.003906 194.65625 131.003906 192.386719 C 131.003906 126.179688 161.597656 121.03125 170.972656 121.03125 C 176.730469 121.03125 181.257812 122.210938 182.691406 122.632812 C 184.367188 122.253906 190.339844 121.03125 197.621094 121.03125 C 219.078125 121.03125 232.484375 133.699219 235.859375 145.464844 C 238.976562 156.34375 242.078125 159.664062 242.109375 159.699219 C 242.734375 160.347656 242.734375 161.394531 242.09375 162.03125 C 241.929688 162.191406 240.789062 163.296875 239.273438 163.855469 C 239.445312 168.476562 240.46875 171.703125 241.546875 175.105469 C 242.878906 179.285156 244.25 183.609375 244.25 190.726562 C 244.25 194.761719 243.511719 197.308594 242.726562 200.003906 C 241.839844 203.070312 240.917969 206.238281 240.917969 212.296875 C 240.917969 223.933594 240.921875 245.539062 210.011719 247.121094 C 205.152344 250.21875 197.429688 253.78125 187.628906 253.78125 Z M 170.972656 124.351562 C 162.378906 124.351562 134.335938 129.257812 134.335938 192.386719 C 134.335938 193.273438 135.546875 196.113281 138.410156 197.539062 C 138.976562 197.820312 139.332031 198.394531 139.332031 199.023438 C 139.332031 208.085938 138.726562 212.914062 138.238281 216.792969 C 137.917969 219.34375 137.667969 221.363281 137.667969 223.914062 C 137.667969 229.078125 142.828125 243.824219 165.769531 243.824219 C 166.09375 243.824219 166.410156 243.921875 166.679688 244.097656 C 171.136719 247.003906 178.386719 250.464844 187.628906 250.464844 C 196.867188 250.464844 204.121094 247.003906 208.574219 244.097656 C 208.824219 243.933594 209.113281 243.839844 209.410156 243.828125 C 235.410156 242.671875 237.589844 227.617188 237.589844 212.296875 C 237.589844 205.765625 238.621094 202.214844 239.527344 199.082031 C 240.273438 196.511719 240.917969 194.289062 240.917969 190.726562 C 240.917969 184.125 239.625 180.046875 238.375 176.105469 C 237.167969 172.308594 235.921875 168.386719 235.921875 162.515625 C 235.921875 161.601562 236.667969 160.855469 237.589844 160.855469 C 237.875 160.855469 238.230469 160.722656 238.582031 160.53125 C 237.238281 158.527344 234.921875 154.28125 232.65625 146.378906 C 229.613281 135.769531 217.351562 124.351562 197.621094 124.351562 C 189.613281 124.351562 183.097656 125.945312 183.035156 125.960938 C 182.730469 126.035156 182.40625 126.023438 182.105469 125.925781 C 182.058594 125.910156 177.257812 124.351562 170.972656 124.351562 Z M 170.972656 124.351562 " fill-opacity="1" fill-rule="nonzero"/></g><path fill="#1f212b" d="M 185.128906 140.945312 C 184.917969 140.945312 184.703125 140.863281 184.539062 140.703125 L 181.210938 137.382812 C 181.003906 137.179688 180.921875 136.886719 180.988281 136.605469 C 181.054688 136.328125 181.261719 136.101562 181.535156 136.011719 L 184.625 134.984375 L 179.761719 132.5625 C 179.46875 132.414062 179.289062 132.109375 179.300781 131.785156 C 179.3125 131.457031 179.519531 131.167969 179.824219 131.046875 L 186.894531 128.230469 C 185.160156 126.984375 180.644531 124.640625 170.945312 124.351562 C 170.488281 124.339844 170.125 123.957031 170.140625 123.5 C 170.152344 123.039062 170.5625 122.71875 170.996094 122.691406 C 185.175781 123.113281 188.964844 127.792969 189.117188 127.992188 C 189.277344 128.199219 189.328125 128.46875 189.261719 128.71875 C 189.191406 128.96875 189.007812 129.171875 188.765625 129.269531 L 182.160156 131.902344 L 187.164062 134.394531 C 187.464844 134.542969 187.648438 134.863281 187.621094 135.195312 C 187.597656 135.53125 187.375 135.820312 187.054688 135.921875 L 183.339844 137.160156 L 185.71875 139.53125 C 186.042969 139.851562 186.042969 140.378906 185.71875 140.703125 C 185.554688 140.863281 185.34375 140.945312 185.128906 140.945312 Z M 185.128906 140.945312 " fill-opacity="1" fill-rule="nonzero"/><g fill="#ffffff" fill-opacity="1"><g transform="translate(115.887593, 258.079383)"><g><path d="M 14.8125 -1.203125 L 13.109375 -3.046875 L 15 -4.8125 C 15.238281 -5.03125 15.359375 -5.207031 15.359375 -5.34375 C 15.367188 -5.476562 15.265625 -5.664062 15.046875 -5.90625 L 14.09375 -6.921875 C 13.875 -7.160156 13.691406 -7.285156 13.546875 -7.296875 C 13.398438 -7.304688 13.207031 -7.203125 12.96875 -6.984375 L 4.515625 0.90625 C 4.265625 1.132812 4.140625 1.316406 4.140625 1.453125 C 4.140625 1.597656 4.25 1.789062 4.46875 2.03125 L 5.421875 3.046875 C 5.640625 3.285156 5.816406 3.40625 5.953125 3.40625 C 6.097656 3.414062 6.296875 3.304688 6.546875 3.078125 L 8.421875 1.328125 L 10.125 3.171875 L 8.03125 5.125 C 6.851562 6.21875 5.6875 6.140625 4.53125 4.890625 L 2.578125 2.796875 C 1.421875 1.554688 1.429688 0.390625 2.609375 -0.703125 L 11.515625 -9.015625 C 12.679688 -10.097656 13.84375 -10.019531 15 -8.78125 L 16.953125 -6.6875 C 18.109375 -5.4375 18.101562 -4.269531 16.9375 -3.1875 Z M 14.8125 -1.203125 "/></g></g></g><g fill="#ffffff" fill-opacity="1"><g transform="translate(126.043293, 268.518569)"><g><path d="M 16.265625 -8.875 L 18.1875 -7.375 L 7.828125 6.046875 L 5.90625 4.546875 L 10.453125 -1.359375 L 7.59375 -3.5625 L 3.046875 2.34375 L 1.109375 0.859375 L 11.46875 -12.5625 L 13.40625 -11.078125 L 8.796875 -5.109375 L 11.65625 -2.90625 Z M 16.265625 -8.875 "/></g></g></g><g fill="#ffffff" fill-opacity="1"><g transform="translate(138.673781, 277.784364)"><g><path d="M 14.140625 -11.671875 L 16.3125 -10.5 L 9.4375 2.34375 C 8.6875 3.75 7.5625 4.050781 6.0625 3.25 L 3.421875 1.828125 C 1.921875 1.023438 1.546875 -0.078125 2.296875 -1.484375 L 9.171875 -14.328125 L 11.34375 -13.15625 L 4.65625 -0.640625 C 4.5 -0.359375 4.445312 -0.144531 4.5 0 C 4.550781 0.132812 4.71875 0.273438 5 0.421875 L 6.359375 1.15625 C 6.660156 1.3125 6.878906 1.367188 7.015625 1.328125 C 7.148438 1.285156 7.296875 1.125 7.453125 0.84375 Z M 14.140625 -11.671875 "/></g></g></g><g fill="#ffffff" fill-opacity="1"><g transform="translate(152.139137, 284.572637)"><g><path d="M 12.515625 -8.015625 L 10.15625 -8.828125 L 11 -11.28125 C 11.101562 -11.59375 11.125 -11.8125 11.0625 -11.9375 C 11 -12.0625 10.8125 -12.175781 10.5 -12.28125 L 9.1875 -12.734375 C 8.882812 -12.835938 8.664062 -12.859375 8.53125 -12.796875 C 8.394531 -12.742188 8.273438 -12.5625 8.171875 -12.25 L 4.40625 -1.328125 C 4.300781 -1.003906 4.28125 -0.773438 4.34375 -0.640625 C 4.414062 -0.515625 4.601562 -0.398438 4.90625 -0.296875 L 6.21875 0.15625 C 6.53125 0.257812 6.75 0.28125 6.875 0.21875 C 7.007812 0.15625 7.128906 -0.0351562 7.234375 -0.359375 L 8.0625 -2.78125 L 10.421875 -1.96875 L 9.5 0.734375 C 8.96875 2.265625 7.898438 2.753906 6.296875 2.203125 L 3.578125 1.265625 C 1.984375 0.710938 1.453125 -0.328125 1.984375 -1.859375 L 5.953125 -13.375 C 6.460938 -14.875 7.515625 -15.347656 9.109375 -14.796875 L 11.828125 -13.859375 C 13.429688 -13.304688 13.976562 -12.28125 13.46875 -10.78125 Z M 12.515625 -8.015625 "/></g></g></g><g fill="#ffffff" fill-opacity="1"><g transform="translate(165.978436, 288.986824)"><g><path d="M 12.921875 -14.953125 L 7.9375 -7.1875 L 9.953125 1.75 L 7.34375 1.296875 L 5.421875 -7.640625 L 10.328125 -15.40625 Z M 1.390625 0.25 L 4.328125 -16.453125 L 6.71875 -16.03125 L 3.78125 0.671875 Z M 1.390625 0.25 "/></g></g></g><g fill="#ffffff" fill-opacity="1"><g transform="translate(180.294273, 291.053416)"><g/></g></g><g fill="#ffffff" fill-opacity="1"><g transform="translate(188.320443, 291.444544)"><g><path d="M 6.203125 -17.453125 L 8.4375 -17.609375 L 9.671875 -0.703125 L 7.21875 -0.53125 L 2.75 -12.484375 L 3.640625 -0.265625 L 1.40625 -0.109375 L 0.171875 -17.015625 L 2.734375 -17.203125 L 7.0625 -5.59375 Z M 6.203125 -17.453125 "/></g></g></g><g fill="#ffffff" fill-opacity="1"><g transform="translate(203.710997, 289.947084)"><g><path d="M -0.28125 -17.375 L 2.65625 -18.09375 C 4.28125 -18.476562 5.28125 -17.898438 5.65625 -16.359375 L 8.515625 -4.515625 C 8.890625 -2.960938 8.265625 -1.992188 6.640625 -1.609375 L 3.703125 -0.890625 C 2.054688 -0.492188 1.046875 -1.070312 0.671875 -2.625 L -2.1875 -14.46875 C -2.5625 -16.007812 -1.925781 -16.976562 -0.28125 -17.375 Z M 6.0625 -4.3125 L 3.390625 -15.4375 C 3.304688 -15.75 3.195312 -15.9375 3.0625 -16 C 2.9375 -16.070312 2.71875 -16.070312 2.40625 -16 L 0.890625 -15.625 C 0.566406 -15.550781 0.363281 -15.453125 0.28125 -15.328125 C 0.207031 -15.210938 0.210938 -15 0.296875 -14.6875 L 2.96875 -3.5625 C 3.050781 -3.25 3.148438 -3.054688 3.265625 -2.984375 C 3.390625 -2.910156 3.613281 -2.910156 3.9375 -2.984375 L 5.453125 -3.359375 C 5.765625 -3.429688 5.960938 -3.53125 6.046875 -3.65625 C 6.140625 -3.78125 6.144531 -4 6.0625 -4.3125 Z M 6.0625 -4.3125 "/></g></g></g><g fill="#ffffff" fill-opacity="1"><g transform="translate(218.195358, 286.089575)"><g><path d="M 0.875 -7.8125 L 3.546875 -1.5 L 1.296875 -0.546875 L -5.296875 -16.171875 L -0.171875 -18.328125 C 1.367188 -18.984375 2.445312 -18.582031 3.0625 -17.125 L 5.140625 -12.21875 C 5.671875 -10.957031 5.414062 -10 4.375 -9.34375 L 9.53125 -4.015625 L 7.109375 -3 L 2.09375 -8.328125 Z M -2.28125 -15.3125 L 0.125 -9.625 L 2.328125 -10.546875 C 2.617188 -10.671875 2.796875 -10.796875 2.859375 -10.921875 C 2.921875 -11.054688 2.890625 -11.273438 2.765625 -11.578125 L 0.984375 -15.828125 C 0.859375 -16.117188 0.722656 -16.289062 0.578125 -16.34375 C 0.429688 -16.394531 0.210938 -16.359375 -0.078125 -16.234375 Z M -2.28125 -15.3125 "/></g></g></g><g fill="#ffffff" fill-opacity="1"><g transform="translate(231.943091, 279.908391)"><g><path d="M -0.40625 -7.859375 L 3.25 -2.046875 L 1.1875 -0.75 L -7.84375 -15.09375 L -3.140625 -18.0625 C -1.710938 -18.945312 -0.578125 -18.722656 0.265625 -17.390625 L 3.09375 -12.890625 C 3.820312 -11.722656 3.734375 -10.738281 2.828125 -9.9375 L 8.75 -5.515625 L 6.53125 -4.109375 L 0.71875 -8.5625 Z M -4.734375 -14.734375 L -1.4375 -9.5 L 0.59375 -10.78125 C 0.863281 -10.945312 1.015625 -11.097656 1.046875 -11.234375 C 1.085938 -11.378906 1.023438 -11.59375 0.859375 -11.875 L -1.59375 -15.765625 C -1.769531 -16.046875 -1.929688 -16.195312 -2.078125 -16.21875 C -2.222656 -16.25 -2.429688 -16.179688 -2.703125 -16.015625 Z M -4.734375 -14.734375 "/></g></g></g><g fill="#ffffff" fill-opacity="1"><g transform="translate(244.285739, 271.615277)"><g><path d="M -9.609375 -14.0625 L -7.734375 -15.625 L 3.125 -2.609375 L 1.25 -1.046875 Z M -9.609375 -14.0625 "/></g></g></g><g fill="#ffffff" fill-opacity="1"><g transform="translate(251.735091, 265.236973)"><g><path d="M 2.234375 -6.484375 L -0.796875 -9.3125 C -1.035156 -9.53125 -1.222656 -9.632812 -1.359375 -9.625 C -1.503906 -9.625 -1.6875 -9.503906 -1.90625 -9.265625 L -3.265625 -7.796875 C -4.378906 -6.585938 -5.523438 -6.53125 -6.703125 -7.625 L -9.984375 -10.671875 C -11.140625 -11.742188 -11.148438 -12.894531 -10.015625 -14.125 L -8.203125 -16.078125 C -7.054688 -17.304688 -5.90625 -17.382812 -4.75 -16.3125 L -2.921875 -14.609375 L -4.59375 -12.8125 L -6.140625 -14.25 C -6.378906 -14.46875 -6.570312 -14.570312 -6.71875 -14.5625 C -6.875 -14.550781 -7.0625 -14.425781 -7.28125 -14.1875 L -8.046875 -13.34375 C -8.273438 -13.101562 -8.390625 -12.910156 -8.390625 -12.765625 C -8.390625 -12.617188 -8.269531 -12.4375 -8.03125 -12.21875 L -5.28125 -9.65625 C -5.03125 -9.4375 -4.832031 -9.332031 -4.6875 -9.34375 C -4.539062 -9.351562 -4.351562 -9.476562 -4.125 -9.71875 L -2.796875 -11.171875 C -1.660156 -12.390625 -0.515625 -12.457031 0.640625 -11.375 L 4.21875 -8.0625 C 5.382812 -6.976562 5.390625 -5.816406 4.234375 -4.578125 L 2.453125 -2.640625 C 1.304688 -1.410156 0.148438 -1.335938 -1.015625 -2.421875 L -2.84375 -4.109375 L -1.171875 -5.90625 L 0.375 -4.46875 C 0.613281 -4.25 0.804688 -4.144531 0.953125 -4.15625 C 1.109375 -4.175781 1.296875 -4.304688 1.515625 -4.546875 L 2.28125 -5.375 C 2.5 -5.613281 2.601562 -5.800781 2.59375 -5.9375 C 2.59375 -6.082031 2.472656 -6.265625 2.234375 -6.484375 Z M 2.234375 -6.484375 "/></g></g></g><g fill="#ffffff" fill-opacity="1"><g transform="translate(111.64372, 171.653917)"><g><path d="M -15.3125 -20.125 L -17.5 -12.796875 L -11.046875 -10.875 L -9.203125 -17.015625 L -5.546875 -15.921875 L -7.390625 -9.78125 L 2.078125 -6.9375 L 0.5 -1.65625 L -22.9375 -8.671875 L -19.171875 -21.28125 Z M -15.3125 -20.125 "/></g></g></g><g fill="#ffffff" fill-opacity="1"><g transform="translate(116.270365, 155.949371)"><g><path d="M 6.4375 -11.171875 L 2.1875 -12.640625 L -0.59375 -7.8125 L 2.8125 -4.875 L 0.09375 -0.15625 L -18.34375 -17.1875 L -14.84375 -23.25 L 9.21875 -15.96875 Z M -3.6875 -10.46875 L -1.6875 -13.9375 L -11.65625 -17.390625 Z M -3.6875 -10.46875 "/></g></g></g><g fill="#ffffff" fill-opacity="1"><g transform="translate(126.171759, 139.159043)"><g><path d="M -0.1875 -22.703125 L -4.046875 -18.703125 L -6.828125 -21.375 C -7.285156 -21.8125 -7.742188 -21.789062 -8.203125 -21.3125 L -9.296875 -20.171875 C -9.773438 -19.679688 -9.785156 -19.21875 -9.328125 -18.78125 L 1.484375 -8.359375 C 1.742188 -8.109375 1.972656 -7.988281 2.171875 -8 C 2.378906 -8.007812 2.617188 -8.148438 2.890625 -8.421875 L 3.984375 -9.5625 C 4.234375 -9.820312 4.359375 -10.054688 4.359375 -10.265625 C 4.367188 -10.472656 4.242188 -10.703125 3.984375 -10.953125 L 1.296875 -13.546875 L 5.15625 -17.546875 L 8.203125 -14.609375 C 10.234375 -12.648438 10.113281 -10.492188 7.84375 -8.140625 L 4.4375 -4.59375 C 2.195312 -2.269531 0.0625 -2.085938 -1.96875 -4.046875 L -13.5 -15.15625 C -15.53125 -17.113281 -15.425781 -19.253906 -13.1875 -21.578125 L -9.78125 -25.125 C -7.507812 -27.476562 -5.359375 -27.675781 -3.328125 -25.71875 Z M -0.1875 -22.703125 "/></g></g></g><g fill="#ffffff" fill-opacity="1"><g transform="translate(139.102869, 126.106994)"><g><path d="M -1.203125 -28.5 L 1.015625 -25.140625 L -2.75 -22.65625 L 8.484375 -5.578125 L 3.890625 -2.5625 L -7.34375 -19.640625 L -11.078125 -17.1875 L -13.296875 -20.546875 Z M -1.203125 -28.5 "/></g></g></g><g fill="#ffffff" fill-opacity="1"><g transform="translate(152.426789, 117.341052)"><g><path d="M 7.8125 -8.296875 L 6.234375 -12.4375 C 6.117188 -12.75 5.960938 -12.945312 5.765625 -13.03125 C 5.566406 -13.113281 5.289062 -13.085938 4.9375 -12.953125 L 1.765625 -11.75 C -1.066406 -10.675781 -2.988281 -11.476562 -4 -14.15625 L -5.984375 -19.390625 C -6.984375 -22.023438 -5.96875 -23.914062 -2.9375 -25.0625 L 1.4375 -26.71875 C 4.457031 -27.863281 6.46875 -27.117188 7.46875 -24.484375 L 8.609375 -21.484375 L 3.46875 -19.53125 L 2.609375 -21.796875 C 2.378906 -22.398438 1.941406 -22.582031 1.296875 -22.34375 L 0.078125 -21.875 C -0.578125 -21.625 -0.789062 -21.195312 -0.5625 -20.59375 L 0.96875 -16.5625 C 1.082031 -16.25 1.234375 -16.054688 1.421875 -15.984375 C 1.617188 -15.910156 1.898438 -15.941406 2.265625 -16.078125 L 5.359375 -17.25 C 6.890625 -17.832031 8.113281 -17.921875 9.03125 -17.515625 C 9.957031 -17.117188 10.664062 -16.269531 11.15625 -14.96875 L 13.203125 -9.5625 C 14.210938 -6.90625 13.207031 -5.003906 10.1875 -3.859375 L 5.828125 -2.203125 C 2.773438 -1.046875 0.742188 -1.796875 -0.265625 -4.453125 L -1.375 -7.40625 L 3.78125 -9.359375 L 4.640625 -7.09375 C 4.859375 -6.5 5.289062 -6.328125 5.9375 -6.578125 L 7.171875 -7.046875 C 7.816406 -7.285156 8.03125 -7.703125 7.8125 -8.296875 Z M 7.8125 -8.296875 "/></g></g></g><g fill="#ffffff" fill-opacity="1"><g transform="translate(169.833363, 111.349125)"><g/></g></g><g fill="#ffffff" fill-opacity="1"><g transform="translate(177.929651, 109.421708)"><g><path d="M 6.234375 -24.53125 L 11.390625 -24.578125 C 14.617188 -24.609375 16.25 -23.21875 16.28125 -20.40625 L 16.421875 -4.421875 C 16.453125 -1.578125 14.851562 -0.140625 11.625 -0.109375 L 6.46875 -0.0625 C 3.207031 -0.03125 1.5625 -1.4375 1.53125 -4.28125 L 1.390625 -20.265625 C 1.359375 -23.078125 2.972656 -24.5 6.234375 -24.53125 Z M 10.921875 -5.109375 L 10.78125 -19.578125 C 10.78125 -20.222656 10.445312 -20.539062 9.78125 -20.53125 L 7.9375 -20.515625 C 7.238281 -20.503906 6.890625 -20.175781 6.890625 -19.53125 L 7.03125 -5.0625 C 7.039062 -4.425781 7.394531 -4.113281 8.09375 -4.125 L 9.9375 -4.140625 C 10.601562 -4.148438 10.929688 -4.472656 10.921875 -5.109375 Z M 10.921875 -5.109375 "/></g></g></g><g fill="#ffffff" fill-opacity="1"><g transform="translate(196.97977, 109.514394)"><g><path d="M 18.984375 -16.703125 L 11.515625 -18.375 L 10.046875 -11.796875 L 16.3125 -10.390625 L 15.484375 -6.671875 L 9.21875 -8.078125 L 7.0625 1.578125 L 1.6875 0.375 L 7.015625 -23.5 L 19.859375 -20.625 Z M 18.984375 -16.703125 "/></g></g></g><g fill="#ffffff" fill-opacity="1"><g transform="translate(213.302426, 113.639188)"><g/></g></g><g fill="#ffffff" fill-opacity="1"><g transform="translate(221.19211, 116.583457)"><g><path d="M 23.34375 -9.703125 L 16.796875 -13.6875 L 13.296875 -7.9375 L 18.78125 -4.59375 L 16.796875 -1.34375 L 11.3125 -4.6875 L 6.171875 3.765625 L 1.484375 0.90625 L 14.203125 -19.984375 L 25.4375 -13.140625 Z M 23.34375 -9.703125 "/></g></g></g><g fill="#ffffff" fill-opacity="1"><g transform="translate(235.21017, 125.059585)"><g><path d="M 25.046875 -9.671875 L 28.984375 -5.796875 L 14.8125 8.59375 C 12.820312 10.625 10.664062 10.492188 8.34375 8.203125 L 4.671875 4.59375 C 2.359375 2.320312 2.195312 0.171875 4.1875 -1.859375 L 18.359375 -16.25 L 22.296875 -12.390625 L 8.640625 1.484375 C 8.203125 1.929688 8.21875 2.390625 8.6875 2.859375 L 10 4.15625 C 10.488281 4.632812 10.953125 4.648438 11.390625 4.203125 Z M 25.046875 -9.671875 "/></g></g></g><g fill="#ffffff" fill-opacity="1"><g transform="translate(248.788891, 138.598318)"><g><path d="M 11.5625 1.390625 L 3.75 6.15625 L 0.90625 1.484375 L 21.796875 -11.25 L 27.03125 -2.640625 C 28.71875 0.109375 28.363281 2.21875 25.96875 3.6875 L 20.109375 7.25 C 18.179688 8.425781 16.484375 8.257812 15.015625 6.75 L 9.3125 15.28125 L 6.25 10.25 L 12.0625 2.203125 Z M 21.203125 -4.46875 L 14.890625 -0.625 L 16.421875 1.890625 C 16.609375 2.203125 16.800781 2.382812 17 2.4375 C 17.195312 2.5 17.441406 2.441406 17.734375 2.265625 L 22.421875 -0.59375 C 22.972656 -0.925781 23.078125 -1.378906 22.734375 -1.953125 Z M 21.203125 -4.46875 "/></g></g></g><g fill="#ffffff" fill-opacity="1"><g transform="translate(258.54344, 154.86413)"><g><path d="M 3.515625 11.1875 L 1.875 5.953125 L 9.4375 3.578125 L 23.359375 -7.25 L 25.046875 -1.890625 L 15.0625 4.671875 L 26.9375 4.125 L 28.625 9.484375 L 11.046875 8.828125 Z M 3.515625 11.1875 "/></g></g></g></svg>